<svg id="Layer_2" data-name="Layer 2" xmlns="http://www.w3.org/2000/svg" viewBox="0 0 239.12 202.48"><defs><style>.cls-1{fill:#898949;}.cls-1,.cls-2,.cls-3{stroke:#000;stroke-miterlimit:10;}.cls-2{fill:#00510a;}.cls-3{font-size:43px;fill:#fff;font-family:Rockwell, Rockwell;}.cls-4{letter-spacing:0.02em;}.cls-5{letter-spacing:0em;}</style></defs><title>Logo</title><path class="cls-1" d="M392.31,330s18.57-4.79,20.59-21.23l6.81,4.76S404.64,333.39,392.31,330Z" transform="translate(-260.61 -182.82)"/><path class="cls-1" d="M439.89,221.69s-12.75-14.33-28.3-8.6l1.13-8.24S437.3,209.16,439.89,221.69Z" transform="translate(-260.61 -182.82)"/><path class="cls-1" d="M325.93,227.48s-7.58,17.62,4.18,29.28l-7.94,2.46S315.68,235.13,325.93,227.48Z" transform="translate(-260.61 -182.82)"/><path class="cls-2" d="M336.15,209.34s20.54-26,56.85-26c0,0,30.82,8.9,15.75,41.09s-59.59-6.16-59.59-6.16Z" transform="translate(-260.61 -182.82)"/><path class="cls-2" d="M366.61,319.55s-33.08-2.33-53.51-32.33c0,0-10-30.49,25.09-36.16s28.46,52.72,28.46,52.72Z" transform="translate(-260.61 -182.82)"/><path class="cls-2" d="M441.86,239.91s18.9,27.24,8.32,62c0,0-17.5,26.89-43.91,3.09s23.27-55.2,23.27-55.2Z" transform="translate(-260.61 -182.82)"/><text class="cls-3" transform="translate(0.5 190.23)">Eco-Se<tspan class="cls-4" x="136.62" y="0">r</tspan><tspan class="cls-5" x="155.2" y="0">vice</tspan></text></svg>